<svg xmlns="http://www.w3.org/2000/svg" viewBox="0 0 99.9 61.69"><defs><style>.cls-1{fill:#c1272d;}.cls-2{fill:#fff;}</style></defs><title>Asset 1</title><g id="Layer_2" data-name="Layer 2"><g id="Layer_1-2" data-name="Layer 1"><path class="cls-1" d="M1.38,44.81q1,0,1,1.25A2.3,2.3,0,0,0,2.1,47H1.38c0-.44-.12-.66-.36-.66a2.49,2.49,0,0,1-1,.33V45.07H1.38ZM0,49.14H.72v.66c-.48,0-.72-.22-.72-.66m2.1-5.91v.59q0,.46-1.09,1l-.29-.66v-.66q.14,0,1.38-.26M.72,49.8h.65v.59H.72Zm1-1.91v1.25H1v-.59a.71.71,0,0,1,.72-.66m.65,1.25h.36V51H2.1v-.33Zm2.82-7.49v.59a3.41,3.41,0,0,0-2.1,1H2.75a2.37,2.37,0,0,0-.36-1,15.93,15.93,0,0,1,2.82-.59M2.39,43.82h.72a2.34,2.34,0,0,0,.36,1H2.39Zm.36-5h.36v.59H2.75ZM38,0l.36.59L39,.33a8.84,8.84,0,0,1,4.85,1.84V2.5l-.36.59a9.61,9.61,0,0,1,3.4.66V4.4l-1.67.26q2.9,1.91,4.49,1.91V6.9l-2.1.26v.66h2.1q0,.59-2.46.92l.36.66v.33q-2.75.2-2.75.92l-.72-.33q-1.38.46-1.38.92v.33h.36l1.38-.92V11l-.36.59h.72v.66l-1.38.26.36-.59h-.72v.33c0,.18.12.26.36.26a4.08,4.08,0,0,0-1.09,2.23l-.65-.33q.14-1.25,1-1.25v-.33h-.65q0,.53-1.38,1.25l.29.66q0,.46-1.38,1.25H39.4l-.72-.33-.36.66H39.4v.26Q35.93,19.71,35.93,20h-1v-.66l-1.45,1h-.29v-.66h-.36q-.72.13-.72.66v.26a1.65,1.65,0,0,1,1.38.66l-.29.59c0,.22.1.33.29.33A14.38,14.38,0,0,0,32.09,25h-.65v-.59h-.36V25h.36q-.8,1.91-1.38,1.91H29.7v-.33l.72-.92V24.44q-.36,0-1.45,1.25l1.09,2.17.65-.33a3,3,0,0,0,1.09.33,5.25,5.25,0,0,1-.72,1.91q3.4,6.57,6.23,6.57,1.74,1,1.74,1.84l.65-.26q0,1.05,2.46,1.84l.29,1.58h-.29l.29.66v.59H40.06c-.24,0-.36-.11-.36-.33l-.65.33a20.81,20.81,0,0,0-6.59-1.84l.36.59h-1q0-.92-.72-.92a2.74,2.74,0,0,1-1.38.33A2.35,2.35,0,0,1,29,39.16l-.65.26H28a5,5,0,0,0-3.11-1.51c0,.18-.1.26-.29.26,0-.17-.12-.26-.36-.26l.36-.66v-.33q-.73,0-.72-.59h-.72q0,1.25-1,1.25v-.92l.36-.66-.72-.33h-.29q0,.53-2.1,3.74h.72q1.67-.46,1.67-1.84h.36v.92Q20,41.65,19.7,41.65H19v-.33a2,2,0,0,0,.36-.92q-1.16,0-1.74,2.17H18q.65,0,.65-.92l.72.33a4.13,4.13,0,0,1-2.1,3.42h-.65l.36-.59v-.33q-.51,0-1.09.92v.33l.72-.33a2.29,2.29,0,0,1,.65,1.25l.72-.33V47h-1l.29,1.58q-.65,0-1.38,2.5h.72v.59a3.47,3.47,0,0,1-.72,1.91,2,2,0,0,1,.36.92h-.65v-.59h-.36l-1.09.92.36.66q0,.59-.65.59l.29.66v1.84h.72l-.36.66.36,1.58h-.36l-.65-.33q0,.72-1.38.92v.33q-2.9,0-4.49-3.42H7.24L8,59.2v.33a7.73,7.73,0,0,1-1.74-1.58v.33l.36.59H5.87q-.51,0-1.38-1.25.36,0,.36-.33-.51,0-1.09-.92V56c0-.22.12-.33.36-.33q-.8-2.5-1-2.5.65-4.47,1.38-5l-.36-1.58a1.44,1.44,0,0,0,1.09-.59,2.34,2.34,0,0,1-.36-1q.36-.92.65-.92l-.29-.66v-.26q2,0,4.78-6.57h.36q.72,0,.72.92h.29a9.2,9.2,0,0,1,1.38-2.5H12.1q.07-.66.65-.66c0,.22.12.33.36.33v-.33a2,2,0,0,1-.36-.92l-.65.33v-.33q0-.46,1-.92,0,.92,1,.92a4.6,4.6,0,0,1-1,2.5v.33l.72.92q-2.32,0-4.2,5l.72.33q0-.59,1.38-2.17,0-1.91,1-1.91h.36v.66h.36a3,3,0,0,1,1-2.23V36q.87,0,1.38-2.5,1.38,0,1.38-2.17h-.65q0,.92-.72.92h-.29q-.73,0-.72-.66l-1.38.66V31.6a36.88,36.88,0,0,1,2.39-3.09,5.09,5.09,0,0,1-.65-1.91h-.36q-.58,0-3.11,3.75h-.36l.36-.59v-.33h-.65v-.33q1.23,0,1.67-2.17.51,0,1.09-1V24.7h-.36l-.72.33a2.32,2.32,0,0,0-.29-.92l.29-1.25q-1.16-3.74-2-3.74l.36-.66q0-.59-1.09-.59l.36-.66v-.33A23,23,0,0,1,6.88,8.15L8.26,6.57A.69.69,0,0,0,9,7.16a.59.59,0,0,1,.65-.59q0,.79,5.94,2.5l.29.66.72-.33a13.1,13.1,0,0,1,5.5,5q1.74.26,1.74.92a2.49,2.49,0,0,1-1,.33v.66a3.86,3.86,0,0,1,1.74.92l.65.33a5.06,5.06,0,0,0,1.38-2.23,20.48,20.48,0,0,1,4.13-3.42v-.33l-1.38-.33q0,.59-2,1.58v.33h-.72v-.33l.72-.92h-.36q-1.74,1.91-2.1,1.91h-.65V12.48h.65v-.59a.58.58,0,0,0-.65-.66h-.36v.66h-.36a.58.58,0,0,1-.65-.66q1.3-2.17,2.75-2.17l-.36-.66q2.17-2.76,4.49-2.76,0-1,2.1-1.58V3.74h-.72V3.09a2.4,2.4,0,0,0,2.1-1.25q.94,0,4.49-1.84ZM3.11,38.17h.36q.65.13.65.66v.33H3.77a.58.58,0,0,1-.65-.66Zm1,4.4h.72v.33H4.13ZM4.49,53v.59c.48,0,.72.22.72.66H5.5v-1L4.85,53Zm.36-4.73h.36v-.66H4.85Zm.36-13.8H5.5q.72,0,.72,1-.51,1.25-1,1.25v-1c0-.17.1-.26.29-.26l-.29-.66Zm0,4.73h.65v.26H5.22ZM5.22,56H5.5v-.59H5.22Zm0,1.58H5.5V57H5.22Zm.65-10.32L5.5,48.55l.72-.33c0,.22.12.33.36.33V47.31Zm0-.33h.72v-.33H5.87Zm.36-1.58v.66a1.72,1.72,0,0,0,1.38-1.91q-.58,0-1.38,1.25m.36,8.48h.29v-.66H6.59Zm.29-22.54h.72v.92H6.88Zm0,17.81h.36v-.59H6.88ZM9,42.57a32.57,32.57,0,0,0-1.74,5.65q.51,0,1.74-3.15c-.24,0-.36-.09-.36-.26q.43,0,1.74-1.91ZM7.24,53.22H8v-.59q-.73.06-.72.59m0,.66v.33a2,2,0,0,1,.36.92H8v-.33a2,2,0,0,1-.36-.92Zm.36-1.58H8v-.66H7.61Zm2.75-25a2.75,2.75,0,0,0,1.38.59v.33Q10,28.19,9,31.34H8.62A.58.58,0,0,1,8,30.68v-.33l.65.33L9,30H8.26v-.59h.36l.72.33.29-.66v-.33H9v-.26q0-.53,1.38-1.25M8.26,47.9,8,49.14h.65V47.9ZM8,56.37h.29v-.92H8Zm0,3.15h.65v.59H8Zm1-20.1a2.58,2.58,0,0,1-.72,1.91V42H9a2.48,2.48,0,0,1,.65-1.58v-.33A.58.58,0,0,0,9,39.42M8.62,34.1H9v.66H8.62ZM9,42.9h.65v.59H9Zm1-4.73v.66h.36q.72,0,.72-.66ZM10.36,31h.36v.59h-.36Zm.36,4.4h.65V36h-.65ZM11.37,25h.72c0,.44-.24.66-.72.66Zm.72,15.7h.36v-.66H12.1Zm1-.33h.36v-.66h-.36Zm2.75-3.74v.26h.72v.33q0,.53-1.74.92l.36.66Q14.92,41,13.47,41v.66q.65,0,.65.92h.36a16.39,16.39,0,0,1,.72-2.83l.65.33c0-.22.12-.33.36-.33l-.36-.59v-.33q1.09,0,1.09-1.91l-.72-.26Zm-1,.59h.72v-.59h-.72ZM15.21,52h.36v-.59h-.36Zm1.74-17.54h.65V34.1h-.65Zm0,1.25a2.79,2.79,0,0,1,.29,1h.36c.48,0,.72-.22.72-.66Zm.29,7.56v.59c.48,0,.72-.2.72-.59ZM18,35.41h.65v-.66q-.65.07-.65.66m1.38,8.41h.36c0,.44-.24.66-.72.66h-.36a.71.71,0,0,1,.72-.66m0,1.91q.72.07.72.59h-.72Zm1.74-2.5v.92c0,.44-.24.66-.72.66h-.29v-.66q0-.46,1-.92m.65-1v.33a.58.58,0,0,1-.65.66V42.9c0-.44.26-.66.65-.66M23.11,13.8h1.09q0,.59-.72.59Zm.72-1.91h.36v.59h-.36Zm1-.92h.36v-.66h-.36Zm.36,7.49v.66q7-5.52,8.62-8.48h-.36q-7.24,6.18-7.24,6.9,0,.92-1,.92m1-5h.36v.33q0,.59-.65.59h-.36v-.33a.59.59,0,0,1,.65-.59m.36-4.07h.72V9.07h-.72Zm0,9.72a.69.69,0,0,0,.72.59v-.33l.65.33h.36v-.33c0-.39-.24-.59-.72-.59a2.48,2.48,0,0,1-1,.33M29,20.63q-1.67,1.77-1.67,2.23v.33h.29Q28.75,21,29.7,21v-.33Zm-1.38-9.4h.72q.65,0,.65-.59v-.33h-.29q-.51,0-1.09.92m0,27.59H28v-.66H27.6ZM28,18.13h.72v-.59q-.72.07-.72.59m.36,7.23h.36V24.7h-.36Zm1-21h.72v.26h-.72ZM31.8,7.49q0,.46-1.38,1.25.65,0,.65,1,.51-.06,1.38-1.58c-.24,0-.36-.11-.36-.33.24,0,.36-.11.36-.33Zm-1.38,2.83a2.33,2.33,0,0,1,.29.92h.36v-.92Zm.65,8.48h.72v-.33h-.72Zm.36-.66h1v-.59h-.36q-.65.07-.65.59m2.75,6.31h.36v.26Q33,27.2,32.09,27.53v-.26a6.86,6.86,0,0,1,2.1-2.83m-2.1.92h.36V26h-.36Zm2.82-11.3q0,.46-2.46,2.83v.33q.51,0,3.11-3.15ZM32.45,24.44h.72v.26q0,.66-.72.66Zm.72-17.87v.92a22,22,0,0,1,4.49-2.17,2,2,0,0,1-.36-.92q-3.12,1.12-3.11,1.51,0,.66-1,.66m.65,11.89h.72v-.33h-.72Zm.72,4.4v.33c0,.39-.24.59-.72.59v-.33a.69.69,0,0,1,.72-.59m.36-4.73.65-.26h.72v.92h.29v-.33l-.29-1.91A2.46,2.46,0,0,1,37.66,16l-.36-.66q-2.39.92-2.39,2.83m0,1h.29v-.66h-.29Zm1-6v.66a2.34,2.34,0,0,1,1.38-.66v-.66a2.61,2.61,0,0,1-1.38.66m1.74,1.58H39q0-.66,1.74-1.58v-.33h-.36q-2.32.85-2.75,1.91m.65,3.15q.72.07.72.59-.72,0-.72.92h-.65v-.26a2.28,2.28,0,0,0,.65-1.25m0-6.9v.59a2.55,2.55,0,0,1,1.09-.33V11Zm2.75,1.51h.72v-.59q-.72.07-.72.59m1.09-10-.72.92h1c.48,0,.72-.2.72-.59a2.48,2.48,0,0,1-1-.33m3.11,8.15h1.38q0,.59-.72.59h-.65Z"/><path class="cls-2" d="M49.3,23.56V25H48.21v-1.5c0-1.85-.71-3.25-2.61-3.25S43,21.64,43,23.49v9c0,1.85.71,3.23,2.61,3.23s2.61-1.38,2.61-3.23v-2H49.3v2c0,2.49-1.08,4.36-3.72,4.36s-3.72-1.87-3.72-4.36V23.56c0-2.49,1.08-4.36,3.72-4.36s3.72,1.87,3.72,4.36"/><rect class="cls-2" x="53.24" y="19.34" width="1.13" height="17.26"/><polygon class="cls-2" points="61.42 36.6 61.42 20.38 57.9 20.38 57.9 19.34 66.06 19.34 66.06 20.38 62.56 20.38 62.56 36.6 61.42 36.6"/><polygon class="cls-2" points="75.47 27.33 75.47 28.37 70.77 28.37 70.77 35.56 76.44 35.56 76.44 36.6 69.63 36.6 69.63 19.34 76.44 19.34 76.44 20.38 70.77 20.38 70.77 27.33 75.47 27.33"/><polygon class="cls-2" points="79.59 19.34 87.97 19.34 87.97 21.81 85.14 21.81 85.14 36.6 82.42 36.6 82.42 21.81 79.59 21.81 79.59 19.34"/><polygon class="cls-2" points="95.32 33.42 95.37 33.42 97.41 19.34 99.9 19.34 97.24 36.6 93.2 36.6 90.53 19.34 93.27 19.34 95.32 33.42"/></g></g></svg>